<svg width="68" height="44" viewBox="0 0 68 44" fill="none" xmlns="http://www.w3.org/2000/svg">
<path d="M28.8509 32.6441C28.0478 33.5107 26.7515 33.8527 26.4555 34.4775C25.035 37.4783 24.1156 38.8411 22.3051 40.1158C20.7727 41.1957 18.7615 42.3892 15.7054 42.6558C13.2509 42.8706 11.681 42.5656 9.39447 41.7104C8.36474 41.3249 5.76582 39.6444 5.12228 38.8049C4.23693 37.6496 3.43533 36.8981 3.02362 35.4622C2.57531 33.8975 2.16212 32.3825 2.12755 30.7233C2.11017 29.8723 2.14345 29.1322 2.23367 28.2009C2.37232 27.8555 2.59842 27.5255 2.90087 27.296C2.93119 27.2733 2.91029 27.2853 2.92915 27.0216C2.95429 26.6689 3.06485 26.5801 3.0837 26.4891C3.11106 26.3568 3.02159 24.9691 3.16098 24.3592C3.45197 23.088 3.78566 22.1832 4.0687 21.0628C4.08386 21.0024 4.09181 20.9574 4.08811 20.9361C3.24898 19.975 2.83228 20.3077 2.755 17.6987L2.8785 17.5686C3.30463 17.3787 4.42901 16.889 4.87381 16.6182M10.4878 20.9958L10.0668 21.3221C9.08758 21.5724 7.94656 21.0484 7.67147 20.0291M3.31331 27.8227C3.74369 28.5123 4.05132 29.101 4.51054 29.7628C4.70632 30.0443 5.40107 31.0944 5.78597 31.0944C6.01484 31.0944 6.22578 31.0859 6.41416 31.0418C6.70164 30.9748 8.33368 29.556 8.59287 28.0886C8.69122 27.4935 9.15913 26.7357 9.75201 26.5297C9.91008 26.4742 10.2221 26.3633 10.4092 26.4536L10.9653 26.5686M23.0749 34.1286C22.7854 34.9845 21.7875 35.5219 20.7598 35.8546C19.5018 36.2619 18.2633 36.4872 16.9736 36.0728C16.4529 35.905 15.9502 35.657 15.4679 35.3619C14.4807 34.7583 13.6704 33.8661 13.2206 32.8104C13.0906 32.5056 12.8645 31.6353 12.7085 31.0971M5.32453 25.995C5.4495 25.641 5.62273 25.4676 5.331 25.1491M13.5021 16.2193C13.2999 16.1275 11.7747 15.4551 11.686 15.3826C11.2765 15.0456 11.5053 14.2658 11.6477 13.8612M19.5393 16.171C20.1813 15.8888 21.2414 15.5532 22.1334 14.9389C23.2534 14.1669 24.1749 13.0515 24.4125 12.1494M24.1807 10.3238C24.0318 10.5626 23.0491 11.0765 22.7509 11.1981C21.0624 11.8871 19.3531 11.1506 18.0755 10.0572C17.1548 9.26879 16.5555 8.44127 15.6028 7.58463C14.7861 6.85102 13.5968 6.49195 12.5114 6.44354C12.2441 6.43153 11.7503 6.40514 11.2548 6.46502C10.7551 6.52471 10.2532 6.67103 9.98014 6.77987C9.62057 6.92346 9.20609 7.13384 9.03416 7.24267C8.72949 7.43395 8.36474 7.84834 8.1294 8.11714L7.78054 8.58268L7.70253 9.101C7.52635 9.46989 7.47865 10.291 7.43243 10.7367C7.38843 11.1597 7.44186 11.6937 7.57977 12.101C7.8116 12.7871 8.4947 13.7758 9.05875 14.2024C9.39521 14.1327 9.62704 14.0588 9.95777 13.9502C10.121 13.8961 10.2199 13.8697 10.563 13.7347M8.53149 13.709C8.53149 13.9879 8.4947 14.4285 8.22257 14.5835L7.79792 14.698L7.56609 14.6596C7.10318 14.6241 6.98763 14.7562 6.67705 14.5835C6.53045 14.5018 4.54678 11.6154 4.35895 11.1604C4.17186 10.7084 4.35026 10.3828 4.47449 9.98111C4.62183 9.50556 5.17941 7.24977 5.5571 5.69719C5.62495 5.43694 5.80113 5.1989 6.07622 4.99543C6.14277 4.95576 6.20341 4.91026 6.25887 4.86039L15.1473 3.61484C15.4766 4.17228 16.0998 4.53699 16.7995 4.51133C17.3238 4.49295 17.7897 4.25836 18.1102 3.89783L18.1383 3.50109L18.1132 3.25376L17.7462 3.30709L17.1829 3.38607L17.0139 3.16058L16.6753 2.70997L16.9006 2.1811L17.0132 1.91594L17.5765 1.83695L17.9167 1.79364L17.89 1.54413L17.7599 1.21418C17.4488 1.00598 17.0696 0.890047 16.6653 0.90497C15.7936 0.936273 15.0865 1.56178 14.9314 2.37092L6.37589 3.56934C6.28272 3.45359 6.1607 3.35823 6.02353 3.28015C5.78597 3.14493 5.26389 3.18697 4.65511 3.35968C4.43992 3.42083 4.33658 3.66397 4.26947 3.86453L1.35553 4.27328C1.06805 4.31296 0.865987 4.57812 0.907029 4.86112L0.938087 5.08006C0.979314 5.36305 1.24867 5.56215 1.53615 5.5223L4.33436 5.12992C4.36116 5.20017 4.36911 5.26769 4.33732 5.33175C3.35232 7.33658 2.72542 8.54155 2.09797 10.9444L2.17377 11.2536L2.27267 11.6545C2.56662 12.197 2.78255 12.7587 3.00643 13.3281C3.39133 14.3083 3.82245 15.2369 4.28167 16.1809L4.39721 16.8278M29.6423 29.7884C29.4848 30.7745 26.34 31.838 25.4387 31.6852C24.538 31.533 22.8063 29.1777 22.9646 28.1889M63.4218 21.4403H62.1118C61.4568 21.4403 60.8018 22.4498 60.8018 23.3747C60.8018 24.3414 61.4568 25.309 62.1118 25.309H63.4218M64.7318 24.0195V21.4403H66.0416C66.6966 21.4403 67.3516 22.0851 67.3516 22.7299C67.3516 23.3461 66.6966 24.0195 66.0416 24.0195H64.7318ZM64.7318 24.0195C64.7318 24.6643 65.3868 25.309 66.0416 25.309H67.3516M59.4918 22.7299C59.4918 22.0851 58.8368 21.4403 58.1818 21.4403H56.8711M59.4918 22.7299V25.309H58.1818C57.5268 25.309 56.8711 24.6643 56.8711 24.0195C56.8711 23.403 57.5268 22.7299 58.1818 22.7299H59.4918ZM52.9411 25.309H54.2511C54.9061 25.309 55.5611 24.2988 55.5611 23.3747C55.5611 22.407 54.9061 21.4403 54.2511 21.4403H52.9411V26.5986M49.0111 25.309H50.3211C52.0212 25.309 51.9864 23.3747 50.3211 23.3747C48.6219 23.3747 48.656 21.4403 50.3211 21.4403H51.6311M48.3561 21.4403C47.7011 21.4403 47.0461 22.0851 47.0461 22.7299V25.309M41.8063 21.4403C41.8063 22.0851 41.1513 22.7298 40.4963 22.7298M40.4963 22.7298H39.1856M40.4963 22.7298C41.1513 22.7298 41.8063 23.3746 41.8063 24.0194V25.309M39.1856 20.1507V25.309M37.8756 21.4403H36.5656C35.9106 21.4403 35.2556 22.4498 35.2556 23.3747C35.2556 24.3414 35.9106 25.309 36.5656 25.309H37.8756M33.9456 22.7299C33.9456 22.0851 33.2906 21.4403 32.6356 21.4403H31.3256M33.9456 22.7299V25.309H32.6356C31.9806 25.309 31.3256 24.6643 31.3256 24.0195C31.3256 23.403 31.9806 22.7299 32.6356 22.7299H33.9456ZM27.395 21.4403H28.705C29.3606 21.4403 30.0156 21.7622 30.0156 22.7298V25.309M27.395 20.1507V25.309M65.3853 13.7012V12.4116M65.3853 14.9915V17.5707M64.0753 13.7012C64.0753 14.3467 63.4203 14.9915 62.7653 14.9915M62.7653 14.9915H61.4553M62.7653 14.9915C63.4203 14.9915 64.0753 15.6363 64.0753 16.2811V17.5707M61.4553 12.4116V17.5707M50.9746 14.9915C50.9746 14.3467 50.3198 13.7012 49.6648 13.7012H48.3548M50.9746 14.9915V17.5707H49.6648C49.0098 17.5707 48.3548 16.9259 48.3548 16.2811C48.3548 15.6647 49.0098 14.9915 49.6648 14.9915H50.9746ZM56.2146 13.7012V17.5707H53.5946C52.9396 17.5707 52.2846 17.2481 52.2846 16.2811V13.7012M54.2496 13.7012V17.5707M37.2191 14.9915C37.2191 14.3467 36.5641 13.7012 35.9091 13.7012H34.5991M37.2191 14.9915V17.5707H35.9091C35.2541 17.5707 34.5991 16.9259 34.5991 16.2811C34.5991 15.6647 35.2541 14.9915 35.9091 14.9915H37.2191ZM33.2891 13.7012V17.5707H30.6693C30.0143 17.5707 29.3593 17.2481 29.3593 16.2811V13.7012M31.3243 13.7012V17.5707M39.8398 13.7012C39.1848 13.7012 38.5298 14.346 38.5298 14.9908V17.5707M40.4956 17.5707H41.8056C43.5047 17.5707 43.4701 15.6363 41.8056 15.6363C40.1057 15.6363 40.1402 13.7012 41.8056 13.7012H43.1156M47.0455 17.5707H45.7355C44.0355 17.5707 44.0702 15.6363 45.7355 15.6363C47.4347 15.6363 47.4001 13.7012 45.7355 13.7012H44.4255M57.5268 17.5707H58.8368C60.536 17.5707 60.5022 15.6363 58.8368 15.6363C57.1369 15.6363 57.1715 13.7012 58.8368 13.7012H60.1468M43.1156 24.0195V21.4403H44.4256C45.0806 21.4403 45.7356 22.0851 45.7356 22.7299C45.7356 23.3461 45.0806 24.0195 44.4256 24.0195H43.1156ZM43.1156 24.0195C43.1156 24.6643 43.7706 25.309 44.4256 25.309H45.7356M12.5663 28.1576C12.9266 28.1576 13.2184 28.4448 13.2184 28.7995C13.2184 29.1542 12.9266 29.4416 12.5663 29.4416C12.2058 29.4416 11.9141 29.1542 11.9141 28.7995C11.9141 28.4448 12.2058 28.1576 12.5663 28.1576ZM16.4037 26.0838C16.7642 26.0838 17.0559 26.3712 17.0559 26.7259C17.0559 27.0798 16.7642 27.3677 16.4037 27.3677C16.0434 27.3677 15.7516 27.0798 15.7516 26.7259C15.7516 26.3712 16.0434 26.0838 16.4037 26.0838ZM20.2412 24.0094C20.601 24.0094 20.8935 24.2974 20.8935 24.6513C20.8935 25.0062 20.601 25.2934 20.2412 25.2934C19.8809 25.2934 19.5892 25.0062 19.5892 24.6513C19.5892 24.2974 19.8809 24.0094 20.2412 24.0094ZM20.2161 19.6764C20.5764 19.6764 20.8681 19.9636 20.8681 20.3185C20.8681 20.6724 20.5764 20.9603 20.2161 20.9603C19.8563 20.9603 19.5639 20.6724 19.5639 20.3185C19.5639 19.9636 19.8563 19.6764 20.2161 19.6764ZM16.4789 17.5282C16.8392 17.5282 17.131 17.8153 17.131 18.17C17.131 18.5247 16.8392 18.8119 16.4789 18.8119C16.1192 18.8119 15.8267 18.5247 15.8267 18.17C15.8267 17.8153 16.1192 17.5282 16.4789 17.5282ZM15.6433 20.2886C15.3712 20.3212 15.1985 20.3447 14.8864 20.7079L14.0582 22.1205C13.9904 22.257 13.9817 22.5763 14.0229 22.7098C14.2401 23.0611 15.0721 24.6066 15.4679 24.6016C15.7012 24.5987 17.4105 24.5909 17.5484 24.5305C17.7629 24.436 18.8375 22.8663 18.8346 22.6019C18.8316 22.3175 18.5125 21.7076 18.2293 21.2554C18.0307 20.9391 17.8719 20.6078 17.7658 20.4357C17.6972 20.3234 17.578 20.2872 17.4905 20.285C17.0249 20.2722 15.7625 20.2744 15.6433 20.2886ZM10.0733 20.2886C10.7782 21.4914 11.026 21.9129 11.2029 22.2145C11.3378 22.4454 11.3068 22.4796 11.2432 22.6068C11.0794 22.8862 10.4952 23.8822 10.1456 24.4786L10.1506 24.7332C10.3506 25.1413 10.7059 25.6801 11.2071 26.5353C11.2938 26.6838 11.2635 26.9079 11.226 26.949C11.1465 27.0365 10.4634 28.2571 10.3896 28.3758C10.16 28.7434 10.0842 28.855 10.1658 29.0732L11.2657 30.9479C11.2657 30.9479 11.3284 30.9599 11.5018 31.0979C12.2587 31.0445 13.0198 31.0424 13.7737 30.9856L13.9665 30.795C14.2791 30.3792 14.7421 29.58 14.9783 29.1777C15.0489 29.1436 15.2296 28.9367 15.3588 28.9147C16.0607 28.7938 17.3874 28.9908 17.7738 28.7241C17.9 28.6368 18.0026 28.4925 18.0893 28.3332C18.3023 27.9408 18.4951 27.539 18.7088 27.1474C18.8505 26.8878 18.88 26.7521 19.4369 26.765C19.9249 26.777 20.4147 26.7997 20.8912 26.7968C21.1967 26.7948 21.4372 26.7442 21.5947 26.5395C21.908 26.1329 22.3111 25.508 22.4937 25.0559C22.7991 24.5398 22.6035 24.1807 22.3124 23.7827C22.0191 23.3825 21.7955 23.0589 21.5751 22.6139C21.4632 22.3879 21.4936 22.3004 21.7723 21.9058C21.835 21.8177 22.61 20.725 22.6207 20.4599L22.568 20.2145L21.5398 18.2738C21.4466 18.1145 21.4841 18.1338 21.2978 18.1032C20.5772 17.9859 19.8563 18.0272 19.096 18.0223C18.8331 18.0208 18.8497 18.0521 18.7031 17.8195C18.4656 17.4428 18.108 16.6657 17.8647 16.2484C17.6957 15.9597 17.7333 15.9768 17.4343 15.9748C16.8154 15.9705 15.4137 15.9499 15.1321 15.9754L14.0423 17.6333C13.9412 17.7449 13.846 18.0534 13.3873 18.0911C13.2993 18.0982 12.7077 18.0932 12.2709 18.1011C12.0448 18.1054 11.8361 18.1011 11.6124 18.1047C11.4822 18.1067 11.3234 18.1573 11.2498 18.2823C10.9681 18.763 10.4582 19.6323 10.2301 20.0213L10.0733 20.2886Z" stroke="black" stroke-width="0.74803" stroke-linecap="round" stroke-linejoin="round"/>
</svg>
