<?xml version="1.0" encoding="UTF-8"?>
<svg id="Warstwa_2" data-name="Warstwa 2" xmlns="http://www.w3.org/2000/svg" viewBox="0 0 319 88.02">
  <defs>
    <style>
      .cls-1 {
        fill: #1a1a1a;
      }
    </style>
  </defs>
  <g id="Warstwa_7" data-name="Warstwa 7">
    <g>
      <g>
        <g>
          <path class="cls-1" d="M49.54,35.52h-10.33c-.51,5.99-1,10.9-1.48,14.74-.48,3.83-.94,7.13-1.39,9.88-.45,2.76-.91,5.27-1.39,7.54-.39,1.76-.95,3.14-1.7,4.14-.75,1-1.85,1.69-3.31,2.08-1.19.3-2.38.06-3.56-.72-1.18-.78-1.89-1.7-2.12-2.77-.18-.8-.22-1.48-.13-2.03.09-.55.25-1.07.49-1.54.24-.48.51-.91.8-1.3.3-.39.61-.77.94-1.16.09-.12.6-.73,1.54-1.83.94-1.1,1.65-2.11,2.12-3.02.48-.91.77-1.92.89-3.02l2.68-20.97h-4.34c-1.22,0-2.39.29-3.49.87-1.1.58-1.95,1.26-2.55,2.03l-1.92,2.86h-1.57c.42-1.16.94-2.56,1.57-4.18.63-1.62,1.49-3.2,2.59-4.72.86-1.28,2.03-2.39,3.49-3.33,1.46-.94,3.16-1.41,5.1-1.41h34.17v7.87h-11.54c-.75,7.13-1.12,14.3-1.12,21.51,0,1.31.22,2.59.67,3.85.45,1.25,1,2.21,1.65,2.86.83.78,1.86,1.27,3.06,1.5,1.21.22,2.44-.16,3.69-1.14.69-.54,1.19-1.15,1.5-1.83.31-.69.51-1.34.6-1.97.09-.63.18-1.25.27-1.88h1.92c-.03,2.48-.4,4.7-1.12,6.69-.72,1.98-1.57,3.58-2.55,4.79-.98,1.21-1.95,2.08-2.91,2.62-1.07.66-2.33,1.05-3.76,1.19-1.43.13-2.74-.2-3.94-1.01-1.97-1.43-3.46-3.68-4.47-6.75-.57-1.79-.89-4.15-.96-7.09-.07-2.94.02-5.81.29-8.61l1.57-14.71Z"/>
          <g>
            <path class="cls-1" d="M46.81,14.4c-.14-.4-.48-1.38-1.44-2.15-1.29-1.05-2.81-.97-3.43-.94-.29.01-1.46.1-2.71.83-.54.32-.94.67-1.22.94,1.02-.62,1.94-.91,2.54-1.05.76-.18,1.49-.35,2.43-.17.25.05.68.14,1.15.37-.14-.02-.28-.03-.44-.04-.55-.03-1.53-.08-2.65.39-1.02.42-1.68,1.07-2.04,1.49.28-.22.69-.51,1.22-.77.49-.24,1.28-.63,2.38-.66.45-.01,1.23-.03,2.1.39.42.2.76.45,1.02.7.21.37.41.89.42,1.51,0,.27,0,.9-.39,1.55-.24.39-.53.64-.72.77-.13-.06-.26-.11-.39-.17.05-.13.1-.32.11-.55,0-.14.03-.62-.28-1.05-.49-.69-1.42-.67-1.6-.66-.18,0-.33.03-.44.06.01.04.03.1.06.17.03.08.11.33.22.61.22.57.27.57.33.83.05.21.06.38.06.5-.25.02-.63.05-1.1.11-.86.12-1.24.25-2.1.39-.68.11-1.02.16-1.38.17-1.29,0-2.31-.64-3.76-1.55-.69-.44-1.17-.8-2.04-1.1-.72-.25-1.12-.25-1.38-.22-.4.04-.87.09-1.27.39-.08.05-.17.14-.33.17-.24.04-.54-.05-.72-.28-.18-.22-.26-.58-.11-.77.14-.18.44-.15.44-.17,0-.02-.61-.16-.94.17-.35.34-.17,1.01.06,1.38.28.45.73.62.88.66-.3.56-.37,1.04-.39,1.33-.03.47.06.86.22,1.55.08.35.16.64.22.83-.17.59-.33,1.18-.5,1.77-.3.27-.61.54-.91.81-.05.04-.05.11,0,.16.2.22.46.55.7.97.32.55.9,1.57.72,2.82-.06.38-.24,1.16-.97,1.96.01.11.02.14.03.25.52.32,1.04.64,1.56.96.07.04.15,0,.16-.08.01-.24.03-.48.04-.72,0-.06.05-.11.1-.11.06,0,.12-.02.19-.03.05,0,.08-.06.06-.11-.02-.05-.05-.1-.07-.15.28.03.55.05.83.08v-.33c.09-.04.18-.07.28-.11-.11-.21-.25-.53-.33-.94-.05-.27-.05-.43-.06-.99,0-1.09-.01-1.64-.06-1.77-.08-.25-.23-.58-.22-1.05,0-.22.04-.3.06-.33.17-.37.66-.45.99-.55.3-.09.68-.25,1.1-.56.18.07.39.15.61.23,1.2.43,1.81.64,2.54.72,0,0,.06,0,1.55.06.31.19.72.51,1.05.99.26.38.37.7.39.77.03.1.09.32.11.61.01.16.02.46-.17,1.16-.15.59-.23.89-.39,1.16-.13.22-.38.57-.83.88.11.02.22.04.33.06-.04.11-.07.22-.11.33.42.15.85.29,1.27.44-.02-.31-.04-.63-.06-.94.03-.14.08-.36.17-.61.29-.79.71-1.15,1.27-1.93.14-.19.31-.45.49-.76.14-.25.17-.55.06-.81-.31-.79-.62-1.58-.93-2.37-.07-.18,0-.38.16-.49.97-.62,1.64-1.07,1.93-1.31.08-.07.29-.25.55-.22.14.01.24.09.28.11.23.17.3.47.39.94.04.19.03.19.06.28.09.26.25.33.44.55.19.22.3.45.44.77.1.22.21.51.33.5.05,0,.08-.06.17-.06.07,0,.1.04.17.06,0,0,.09.02.22-.06.22-.12.27-.65.28-.72.05-.55.13-1.1.17-1.66.03-.52.05-.78.06-.83.09-.65.23-.96.11-1.38-.06-.2-.15-.35-.22-.44.14-.14.32-.34.5-.61.42-.64.53-1.23.55-1.38.13-.81-.07-1.45-.22-1.88ZM30.62,26.39c-.07.58-.25.84-.33.94-.06.08-.13.14-.19.19.04-.48.06-1.03.03-1.63-.04-.84-.17-1.58-.31-2.19,0,0,0-.01,0-.02.14.2.37.41.59,1,.08.21.31.88.22,1.71Z"/>
            <path class="cls-1" d="M46.43,16.28c.02.15.13.74.55,1.38.18.27.36.47.5.61-.07.09-.16.24-.22.44-.12.43.02.73.11,1.38,0,.05.02.31.06.83.03.55.11,1.1.17,1.66,0,.07.06.59.28.72.13.07.22.06.22.06.07-.01.09-.05.17-.06.08,0,.11.05.17.06.12,0,.23-.27.33-.5.14-.32.25-.55.44-.77.19-.22.35-.29.44-.55.03-.08.02-.09.06-.28.09-.47.15-.77.39-.94.03-.02.13-.1.28-.11.26-.03.47.16.55.22.29.24.97.69,1.93,1.31.16.1.23.31.16.49-.31.79-.62,1.58-.93,2.37-.1.27-.08.56.06.81.19.32.36.57.49.76.56.78.98,1.15,1.27,1.93.09.25.14.46.17.61-.02.31-.04.63-.06.94.42-.15.85-.29,1.27-.44-.04-.11-.07-.22-.11-.33.11-.02.22-.04.33-.06-.45-.31-.7-.66-.83-.88-.16-.27-.23-.57-.39-1.16-.18-.7-.18-1-.17-1.16.02-.29.08-.51.11-.61.02-.07.12-.39.39-.77.33-.49.74-.8,1.05-.99,1.49-.05,1.55-.06,1.55-.06.74-.08,1.34-.29,2.54-.72.22-.08.43-.16.61-.23.42.31.8.47,1.1.56.34.1.83.18.99.55.01.03.05.11.06.33.01.47-.14.8-.22,1.05-.04.13-.05.68-.06,1.77,0,.56,0,.72-.06.99-.08.41-.22.73-.33.94.09.04.18.07.28.11v.33c.28-.03.55-.05.83-.08-.02.05-.05.1-.07.15-.02.05,0,.1.06.11.06,0,.12.02.19.03.06,0,.1.06.1.11.01.24.03.48.04.72,0,.08.09.12.16.08.52-.32,1.04-.64,1.56-.96.01-.11.02-.14.03-.25-.74-.8-.92-1.58-.97-1.96-.18-1.25.4-2.26.72-2.82.24-.42.5-.74.7-.97.04-.05.04-.12,0-.16-.3-.27-.61-.54-.91-.81-.17-.59-.33-1.18-.5-1.77.06-.19.14-.48.22-.83.16-.69.25-1.08.22-1.55-.02-.29-.09-.76-.39-1.33.15-.05.61-.21.88-.66.23-.37.4-1.04.06-1.38-.33-.32-.94-.19-.94-.17,0,.02.3-.02.44.17.15.19.07.55-.11.77-.18.22-.48.32-.72.28-.16-.03-.26-.11-.33-.17-.4-.29-.87-.34-1.27-.39-.27-.03-.66-.03-1.38.22-.88.3-1.35.67-2.04,1.1-1.44.91-2.47,1.55-3.76,1.55-.36,0-.7-.06-1.38-.17-.86-.14-1.24-.27-2.1-.39-.47-.07-.86-.1-1.1-.11,0-.11,0-.29.06-.5.06-.26.11-.26.33-.83.11-.28.2-.53.22-.61.02-.07.04-.13.06-.17-.11-.02-.26-.05-.44-.06-.18,0-1.12-.02-1.6.66-.3.43-.28.91-.28,1.05,0,.24.06.43.11.55-.13.06-.26.11-.39.17-.19-.14-.48-.38-.72-.77-.4-.65-.39-1.28-.39-1.55.01-.63.21-1.14.42-1.51.26-.24.59-.5,1.02-.7.87-.42,1.65-.4,2.1-.39,1.09.04,1.89.42,2.38.66.53.26.93.55,1.22.77-.36-.42-1.02-1.07-2.04-1.49-1.12-.46-2.1-.42-2.65-.39-.15,0-.3.02-.44.04.47-.23.91-.32,1.15-.37.94-.19,1.68-.01,2.43.17.61.14,1.52.43,2.54,1.05-.27-.27-.67-.62-1.22-.94-1.25-.73-2.41-.81-2.71-.83-.62-.03-2.13-.11-3.43.94-.95.77-1.3,1.75-1.44,2.15-.15.43-.36,1.07-.22,1.88ZM63.06,24.68c.22-.59.45-.8.59-1,0,0,0,.01,0,.02-.15.61-.27,1.35-.31,2.19-.03.6-.01,1.14.03,1.63-.06-.05-.13-.12-.19-.19-.08-.1-.27-.36-.33-.94-.09-.83.14-1.5.22-1.71Z"/>
          </g>
        </g>
        <path class="cls-1" d="M86.85,44.44c.09,20.09-14.59,38.59-34.38,42.59C25.68,92.75.04,71.78,0,44.44-.25,16.64,25.27-4.77,52.62,1.08c20.06,4.14,34.55,23.06,34.23,43.36h0ZM86.53,44.44c-.03-11.1-4.83-22.03-12.96-29.57C63.67,5.52,49.29,1.46,35.99,4.22,17.08,7.87,2.56,25.09,2.61,44.44c.14,37.41,44.44,55.56,71.34,29.95,8.04-7.73,12.69-18.79,12.58-29.95h0Z"/>
      </g>
      <g>
        <g>
          <path class="cls-1" d="M100.72,8.72h5.5c3.11,0,5.61.73,7.52,2.19,1.9,1.46,2.86,3.36,2.86,5.69s-1.01,4.32-3.02,5.91c-2.01,1.59-5.06,2.36-9.16,2.32v11.25h-3.69V8.72ZM104.41,11.98v9.58c2.81-.03,4.89-.43,6.24-1.19,1.35-.77,2.03-1.99,2.03-3.68,0-1.27-.51-2.38-1.54-3.31-1.02-.93-3.27-1.4-6.73-1.4Z"/>
          <path class="cls-1" d="M119.02,22.23c0-3.95,1.49-7.33,4.47-10.15,2.98-2.82,6.56-4.23,10.74-4.23s7.59,1.42,10.54,4.26c2.95,2.84,4.42,6.21,4.42,10.12,0,4.13-1.46,7.63-4.37,10.48-2.91,2.85-6.49,4.28-10.73,4.28s-7.74-1.44-10.67-4.31c-2.93-2.88-4.4-6.36-4.4-10.45ZM145.21,22.41c0-3.02-1.09-5.56-3.26-7.63-2.18-2.07-4.85-3.1-8.03-3.1s-5.61,1.05-7.76,3.15c-2.15,2.1-3.23,4.63-3.23,7.57s1.11,5.52,3.32,7.58c2.21,2.07,4.92,3.1,8.13,3.1,2.95,0,5.49-1.05,7.63-3.16,2.14-2.11,3.21-4.62,3.21-7.52Z"/>
          <path class="cls-1" d="M151.6,8.72h18.47l-13.07,23.66h12.81v3.69h-18.85l12.99-23.62h-12.35v-3.74Z"/>
          <path class="cls-1" d="M172.49,7.62l20.23,20.79V8.72h3.74v28.62l-20.23-20.7v19.43h-3.74V7.62Z"/>
          <path class="cls-1" d="M210.58,7.67l12.92,28.41h-3.92l-3.17-7h-11.61l-3.14,7h-3.89l12.81-28.41ZM210.57,16.2l-4.38,9.76h8.8l-4.42-9.76Z"/>
          <path class="cls-1" d="M225.04,7.62l20.23,20.79V8.72h3.74v28.62l-20.23-20.7v19.43h-3.74V7.62ZM233.95,5.97l2.86-5.97h5.07l-4.75,5.97h-3.18Z"/>
          <path class="cls-1" d="M269.62,11.77l-3.03,2.43c-.8-.83-1.52-1.45-2.17-1.86s-1.59-.61-2.82-.61c-1.34,0-2.43.3-3.27.91-.84.61-1.25,1.39-1.25,2.34,0,.83.36,1.56,1.09,2.19.73.64,1.97,1.33,3.73,2.09,1.76.75,3.13,1.46,4.1,2.11.98.65,1.78,1.37,2.41,2.16.63.79,1.1,1.62,1.4,2.49.31.87.46,1.8.46,2.77,0,2.27-.83,4.21-2.48,5.81-1.65,1.6-3.65,2.4-6,2.4s-4.31-.63-6.07-1.88c-1.75-1.25-3.1-3.13-4.05-5.64l3.74-1.05c1.36,3.08,3.44,4.62,6.25,4.62,1.36,0,2.49-.41,3.39-1.22.9-.81,1.35-1.84,1.35-3.08,0-.74-.24-1.49-.71-2.24-.47-.75-1.06-1.37-1.76-1.85-.7-.49-1.82-1.04-3.35-1.67-1.53-.63-2.71-1.2-3.54-1.73-.83-.52-1.54-1.14-2.14-1.87-.6-.72-1.04-1.44-1.33-2.16-.28-.72-.42-1.48-.42-2.3,0-1.96.79-3.63,2.36-5.01,1.57-1.38,3.49-2.07,5.73-2.07,1.49,0,3,.32,4.53.97,1.53.64,2.81,1.62,3.82,2.94Z"/>
          <path class="cls-1" d="M273.24,8.72h3.74v11.11l11.6-11.11h5.21l-13.22,12.69,13.31,14.66h-4.76l-12.14-13.35v13.35h-3.74V8.72Z"/>
          <path class="cls-1" d="M306.04,7.67l12.92,28.41h-3.92l-3.17-7h-11.61l-3.14,7h-3.89l12.81-28.41ZM306.03,16.2l-4.38,9.76h8.8l-4.42-9.76Z"/>
        </g>
        <g>
          <path class="cls-1" d="M100.75,44.89h2.31v17.07h-2.31v-17.07Z"/>
          <path class="cls-1" d="M119.86,44.18l4.67,17.79h-2.29l-2.83-10.87-4.87,11.52-4.88-11.62-2.87,10.96h-2.27l4.67-17.79,5.35,12.73,5.31-12.73Z"/>
          <path class="cls-1" d="M126.44,44.89h3.43c1.94,0,3.5.46,4.69,1.37,1.19.91,1.78,2.1,1.78,3.55s-.63,2.69-1.88,3.69c-1.26.99-3.16,1.47-5.72,1.45v7.02h-2.31v-17.07ZM128.74,46.93v5.98c1.75-.02,3.05-.27,3.89-.74.84-.48,1.27-1.24,1.27-2.3,0-.8-.32-1.48-.96-2.06-.64-.58-2.04-.87-4.2-.87Z"/>
          <path class="cls-1" d="M138.93,44.89h3.7c1.84,0,3.34.46,4.5,1.37,1.16.92,1.74,2.09,1.74,3.52,0,1.14-.37,2.15-1.12,3.03-.75.88-1.92,1.49-3.5,1.85l4.96,7.31h-2.68l-4.74-7.02h-.52v7.02h-2.33v-17.07ZM141.26,46.96v5.95c3.44.07,5.16-.92,5.16-2.99,0-.72-.2-1.32-.6-1.78-.4-.46-.94-.77-1.61-.94-.67-.17-1.65-.25-2.95-.25Z"/>
          <path class="cls-1" d="M151.06,44.89h9.46v2.33h-7.16v4.26h7.16v2.31h-7.16v5.87h7.16v2.31h-9.46v-17.07Z"/>
          <path class="cls-1" d="M161.73,44.89h11.53l-8.16,14.77h7.99v2.31h-11.77l8.11-14.74h-7.71v-2.33Z"/>
          <path class="cls-1" d="M181.28,44.24l8.06,17.73h-2.44l-1.98-4.37h-7.25l-1.96,4.37h-2.43l7.99-17.73ZM181.28,49.57l-2.73,6.09h5.49l-2.76-6.09Z"/>
          <path class="cls-1" d="M208.9,44.24l5.5,12.6,5.16-11.92h2.41l-7.57,17.58-5.49-12.63-5.5,12.63-7.58-17.58h2.41l5.2,12.06,5.47-12.74Z"/>
          <path class="cls-1" d="M222.12,53.33c0-2.46.93-4.58,2.79-6.33,1.86-1.76,4.09-2.64,6.7-2.64s4.74.89,6.58,2.66c1.84,1.77,2.76,3.88,2.76,6.31,0,2.58-.91,4.76-2.73,6.54-1.82,1.78-4.05,2.67-6.69,2.67s-4.83-.9-6.66-2.69c-1.83-1.79-2.75-3.97-2.75-6.52ZM238.47,53.44c0-1.88-.68-3.47-2.04-4.76-1.36-1.29-3.03-1.93-5.01-1.93s-3.5.66-4.84,1.97c-1.34,1.31-2.02,2.89-2.02,4.73s.69,3.44,2.07,4.73c1.38,1.29,3.07,1.93,5.07,1.93,1.84,0,3.43-.66,4.76-1.97,1.34-1.32,2-2.88,2-4.69Z"/>
          <path class="cls-1" d="M243.29,44.89h2.31v14.77h5.56v2.31h-7.87v-17.07Z"/>
          <path class="cls-1" d="M252.34,44.21l12.63,12.98v-12.29h2.33v17.87l-12.63-12.92v12.13h-2.33v-17.76Z"/>
          <path class="cls-1" d="M269.55,44.89h9.46v2.33h-7.16v4.26h7.16v2.31h-7.16v5.87h7.16v2.31h-9.46v-17.07Z"/>
          <path class="cls-1" d="M297.21,47.63l-1.73,1.7c-1.74-1.71-3.76-2.56-6.04-2.56-2,0-3.67.64-5,1.93-1.33,1.29-2,2.89-2,4.82,0,1.69.65,3.21,1.94,4.56,1.29,1.35,3.07,2.03,5.34,2.03,3.4,0,5.54-1.48,6.42-4.44h-4.61v-2.33h7.28c0,1.17-.08,2.1-.23,2.8-.16.7-.48,1.46-.97,2.3-.49.84-1.15,1.59-1.96,2.25-.82.66-1.69,1.14-2.63,1.43-.93.29-2.05.43-3.34.43-2.95,0-5.3-.93-7.06-2.78-1.76-1.85-2.63-3.97-2.63-6.35,0-2.51.9-4.65,2.69-6.41,1.8-1.76,3.97-2.65,6.53-2.65,1.52,0,2.91.23,4.16.69,1.26.46,2.54,1.32,3.85,2.58Z"/>
          <path class="cls-1" d="M300.12,53.33c0-2.46.93-4.58,2.79-6.33s4.09-2.64,6.7-2.64,4.74.89,6.58,2.66c1.84,1.77,2.76,3.88,2.76,6.31,0,2.58-.91,4.76-2.73,6.54-1.82,1.78-4.05,2.67-6.69,2.67s-4.83-.9-6.66-2.69c-1.83-1.79-2.75-3.97-2.75-6.52ZM316.47,53.44c0-1.88-.68-3.47-2.04-4.76-1.36-1.29-3.03-1.93-5.01-1.93s-3.5.66-4.85,1.97c-1.34,1.31-2.02,2.89-2.02,4.73s.69,3.44,2.07,4.73c1.38,1.29,3.07,1.93,5.07,1.93,1.84,0,3.43-.66,4.76-1.97,1.34-1.32,2-2.88,2-4.69Z"/>
        </g>
        <g>
          <path class="cls-1" d="M100.54,79.59c0-2.42.8-4.42,2.4-6,1.6-1.58,3.5-2.37,5.7-2.37,2.43,0,4.44.79,6.03,2.38,1.59,1.59,2.39,3.59,2.39,6.01s-.79,4.4-2.36,5.99c-1.57,1.59-3.56,2.39-5.94,2.39s-4.36-.79-5.9-2.37c-1.54-1.58-2.32-3.59-2.32-6.03ZM108.81,74.5c-1.37-.03-2.48.45-3.32,1.42-.84.97-1.26,2.23-1.26,3.77,0,1.46.43,2.66,1.29,3.62.86.96,1.94,1.44,3.25,1.44,1.37,0,2.48-.47,3.33-1.42.84-.94,1.27-2.19,1.27-3.74s-.41-2.75-1.24-3.67c-.83-.92-1.93-1.4-3.3-1.42Z"/>
          <path class="cls-1" d="M119.12,71.4h5.61c1.51,0,2.72.44,3.65,1.32.92.88,1.39,2.03,1.39,3.47,0,.94-.23,1.83-.68,2.68-.45.85-1.14,1.48-2.05,1.89-.92.42-1.7.63-2.35.65l-2.05.05v6.34h-3.51v-16.4ZM122.58,74.35v4.2h1.37c.59,0,1.1-.21,1.52-.64.42-.42.63-.93.63-1.51,0-.67-.24-1.18-.71-1.55-.47-.37-1.15-.55-2.02-.55l-.79.05Z"/>
          <path class="cls-1" d="M131.61,71.4h5.4c1.64,0,2.94.43,3.89,1.3s1.43,2.03,1.43,3.51c0,.84-.22,1.71-.66,2.62-.44.91-1.24,1.62-2.42,2.13l4.59,6.84h-4.06l-4.24-6.34h-.4v6.34h-3.53v-16.4ZM135.17,74.32v4.27h.76c1.85,0,2.77-.75,2.77-2.26,0-.62-.24-1.11-.72-1.47-.48-.36-1.15-.54-2-.54h-.81Z"/>
          <path class="cls-1" d="M144.02,79.59c0-2.42.8-4.42,2.4-6,1.6-1.58,3.5-2.37,5.7-2.37,2.43,0,4.44.79,6.03,2.38,1.59,1.59,2.39,3.59,2.39,6.01s-.79,4.4-2.36,5.99c-1.57,1.59-3.56,2.39-5.94,2.39s-4.36-.79-5.9-2.37c-1.54-1.58-2.32-3.59-2.32-6.03ZM152.29,74.5c-1.37-.03-2.48.45-3.32,1.42-.84.97-1.26,2.23-1.26,3.77,0,1.46.43,2.66,1.29,3.62.86.96,1.94,1.44,3.25,1.44,1.37,0,2.48-.47,3.33-1.42.84-.94,1.27-2.19,1.27-3.74s-.41-2.75-1.24-3.67c-.83-.92-1.93-1.4-3.3-1.42Z"/>
          <path class="cls-1" d="M176.46,74.96l-2.35,2.2c-.49-.85-1.1-1.48-1.82-1.9-.72-.42-1.48-.63-2.27-.63-1.28,0-2.4.49-3.34,1.46-.94.97-1.42,2.12-1.42,3.45,0,1.41.47,2.6,1.42,3.58.94.98,2.08,1.47,3.42,1.47.72,0,1.42-.18,2.09-.55.67-.37,1.21-1.05,1.62-2.06h-3.88v-3.2h7.57v2.12c0,1.09-.37,2.26-1.12,3.52-.75,1.25-1.74,2.17-2.96,2.75-1.22.58-2.46.87-3.71.87-2.26,0-4.18-.82-5.73-2.46-1.56-1.64-2.34-3.67-2.34-6.08,0-2.29.8-4.25,2.4-5.87,1.6-1.62,3.53-2.44,5.79-2.44,2.88,0,5.1,1.26,6.64,3.78Z"/>
          <path class="cls-1" d="M179.11,71.4h5.4c1.64,0,2.94.43,3.89,1.3s1.43,2.03,1.43,3.51c0,.84-.22,1.71-.66,2.62-.44.91-1.24,1.62-2.42,2.13l4.59,6.84h-4.06l-4.24-6.34h-.4v6.34h-3.53v-16.4ZM182.67,74.32v4.27h.76c1.85,0,2.77-.75,2.77-2.26,0-.62-.24-1.11-.72-1.47-.48-.36-1.15-.54-2-.54h-.81Z"/>
          <path class="cls-1" d="M198.78,71.4h2.74l6.68,16.4h-3.56l-1.31-3.22h-6.29l-1.29,3.22h-3.54l6.57-16.4ZM200.15,76.77l-1.93,4.83h3.9l-1.97-4.83Z"/>
          <path class="cls-1" d="M210.89,71.4h4.2l3.07,9.83,3.07-9.83h4.05l2.11,16.4h-3.37l-1.45-11.54-3.61,11.54h-1.6l-3.7-11.64-1.37,11.64h-3.42l2.01-16.4Z"/>
          <path class="cls-1" d="M228.46,79.59c0-2.42.8-4.42,2.4-6,1.6-1.58,3.5-2.37,5.7-2.37,2.43,0,4.44.79,6.03,2.38,1.59,1.59,2.39,3.59,2.39,6.01s-.79,4.4-2.36,5.99c-1.57,1.59-3.56,2.39-5.94,2.39s-4.36-.79-5.9-2.37c-1.54-1.58-2.32-3.59-2.32-6.03ZM236.73,74.5c-1.37-.03-2.48.45-3.32,1.42-.84.97-1.26,2.23-1.26,3.77,0,1.46.43,2.66,1.29,3.62.86.96,1.94,1.44,3.25,1.44,1.37,0,2.48-.47,3.33-1.42.84-.94,1.27-2.19,1.27-3.74s-.41-2.75-1.24-3.67c-.83-.92-1.93-1.4-3.3-1.42Z"/>
          <path class="cls-1" d="M245.46,71.4h3.15l2.64,11.18,2.75-11.18h2.25l2.71,11.23,2.69-11.23h3.15l-3.97,16.4h-3.32l-2.4-10.05-2.41,10.05h-3.31l-3.93-16.4Z"/>
          <path class="cls-1" d="M270.66,71.4h2.74l6.68,16.4h-3.56l-1.31-3.22h-6.29l-1.29,3.22h-3.54l6.57-16.4ZM272.03,76.77l-1.93,4.83h3.9l-1.97-4.83Z"/>
          <path class="cls-1" d="M292.43,71.4h3.46v16.4h-3.44l-7.5-10.62v10.62h-3.53v-16.4h3.49l7.52,10.54v-10.54Z"/>
          <path class="cls-1" d="M298.04,71.4h3.53v16.4h-3.53v-16.4Z"/>
          <path class="cls-1" d="M309.58,71.4h2.74l6.68,16.4h-3.56l-1.31-3.22h-6.29l-1.29,3.22h-3.54l6.57-16.4ZM310.95,76.77l-1.93,4.83h3.9l-1.97-4.83Z"/>
        </g>
      </g>
    </g>
  </g>
</svg>